<svg xmlns="http://www.w3.org/2000/svg" version="1.1" xmlns:xlink="http://www.w3.org/1999/xlink" xmlns:svgjs="http://svgjs.dev/svgjs" width="100%" height="100%" viewBox="0 0 1000 600"><rect width="1000" height="600" x="0" y="0" fill="#f4efea"/><g><circle r="166.66666666666666" cx="310.64809672037757" cy="332.870384717483" fill="#7d141d" transform="matrix(0.8681672282999924,0,0,0.8681672282999923,0,11.012847849297728)"/><path d="M337.0041236517932 397.12090400093064Q333.55244713185044 403.08737341397455 326.89564241481804 405.4788921456492Q320.2388376977856 407.8704108773237 311.80688505621123 407.8704108773237Q303.3749324146368 407.8704108773237 299.4548140812733 407.5992077221854Q295.5593505801951 407.32800456704706 291.22010009798134 406.19388228192304Q286.8561947834823 405.03510516451365 284.3660567226665 403.08737341397455L284.3660567226665 403.08737341397455Q278.69544529704626 398.27968111834 278.69544529704626 388.1711998813648L278.69544529704626 388.1711998813648Q278.69544529704626 373.6001940007494 286.1412046472085 373.6001940007494L286.1412046472085 373.6001940007494Q288.45875888202715 373.6001940007494 289.6915004962924 372.9098586967609L289.6915004962924 372.9098586967609Q293.0692125193792 371.307294598216 293.0692125193792 361.8891486652294L293.0692125193792 361.8891486652294L293.0692125193792 269.40887276304943Q293.0692125193792 265.5134092619712 303.2763130854956 261.69191025774893Q313.48341365161195 257.87041125352664 325.02187516113486 257.87041125352664L325.02187516113486 257.87041125352664Q342.6007705805575 257.87041125352664 342.6007705805575 266.2037445659598L342.6007705805575 266.2037445659598L342.6007705805575 364.3792867260453Q342.6007705805575 376.63273837184204 341.5406127922894 383.90591389600706Q340.4804550040212 391.1790894201721 337.0041236517932 397.12090400093064Z " fill="#f4efea" transform="matrix(0.8681672282999924,0,0,0.8681672282999923,0,11.012847849297728)"/><path d="M614.4960162513609 397.94327530955115Q611.3084022751156 403.45329375420386 605.1608610352138 405.66185486631673Q599.0133197953121 407.8704159784295 591.2264342247698 407.8704159784295Q583.4395486542277 407.8704159784295 579.8193299240634 407.6199605945817Q576.2218798651579 407.3695052107338 572.2145937235923 406.3221463328247Q568.1845389107677 405.2520187836566 565.8849031136194 403.45329375420386L565.8849031136194 403.45329375420386Q560.6481087240734 399.01340285871925 560.6481087240734 389.67824764257216L560.6481087240734 389.67824764257216Q560.6481087240734 376.22196292856506 567.5242474442598 376.22196292856506L567.5242474442598 376.22196292856506Q569.664502542596 376.22196292856506 570.8029361055408 375.584440133316L570.8029361055408 375.584440133316Q573.9222440680094 374.10447650148774 573.9222440680094 365.40684408058974L573.9222440680094 365.40684408058974L573.9222440680094 280.00155818847344Q573.9222440680094 276.40410812956793 583.3484739691921 272.87496408443917Q592.7747038703748 269.3458200393104 603.4304420195377 269.3458200393104L603.4304420195377 269.3458200393104Q619.6645046271301 269.3458200393104 619.6645046271301 277.041630924817L619.6645046271301 277.041630924817L619.6645046271301 367.70647987773816Q619.6645046271301 379.0225094934092 618.6854517629977 385.73926751478325Q617.7063988988651 392.4560255361574 614.4960162513609 397.94327530955115ZM685.2382778527486 381.80028738699446L685.2382778527486 381.80028738699446L685.2382778527486 336.24017619794483Q685.2382778527486 323.9450937181414 684.2592249886161 318.3667692597121Q683.2801721244837 312.7884448012827 679.500572695507 312.7884448012827L679.500572695507 312.7884448012827Q676.221884034226 312.7884448012827 676.221884034226 317.20556702550834L676.221884034226 317.20556702550834L676.221884034226 381.80028738699446Q676.221884034226 383.5990124164472 666.7045794480078 384.66913996561516Q657.2100435330485 385.73926751478325 647.2145968503935 385.73926751478325Q637.1963814964795 385.73926751478325 634.5779843017065 384.8285206644275Q631.9595871069336 383.9405424853305 631.9595871069336 381.80028738699446L631.9595871069336 381.80028738699446L631.9595871069336 268.2073864763656Q631.9595871069336 264.74654844501356 641.4768916931519 261.30847908492035Q650.9714276081112 257.8704097248272 661.4677850584619 257.8704097248272L661.4677850584619 257.8704097248272Q672.4422846052495 257.8704097248272 675.4022118689059 261.96877055142835L675.4022118689059 261.96877055142835Q676.3812647330383 263.2893534844443 676.3812647330383 264.74654844501356L676.3812647330383 264.74654844501356L676.3812647330383 288.85857130818374L674.5825397035856 300.17460092385465L675.7209732665303 300.17460092385465Q678.0206090636788 296.7137628925026 682.9386420556002 294.0953656977297L682.9386420556002 294.0953656977297Q692.1144165729349 289.1773327058082 702.9523040921691 289.1773327058082L702.9523040921691 289.1773327058082Q718.5260752332536 289.1773327058082 724.0133250066474 299.10447337468656Q729.5005747800411 309.00884537230604 729.5005747800411 331.3221432060235L729.5005747800411 331.3221432060235L729.5005747800411 381.80028738699446Q729.5005747800411 383.5990124164472 719.9149641800461 384.66913996561516Q710.3293535800512 385.73926751478325 700.4022129111729 385.73926751478325Q690.4750722422946 385.73926751478325 687.8566750475215 384.8285206644275Q685.2382778527486 383.9405424853305 685.2382778527486 381.80028738699446ZM791.4768979467542 387.2192311466115L791.4768979467542 387.2192311466115Q779.1818154669506 387.2192311466115 770.3248023472404 385.0789760482753Q761.4677892275301 382.9614896211981 754.2501204384603 377.54254586158095L754.2501204384603 377.54254586158095Q739.3366407638839 366.72742701360573 739.3366407638839 337.2192290620774L739.3366407638839 337.2192290620774Q739.3366407638839 310.98971977183 754.5916505073437 299.67369015615895L754.5916505073437 299.67369015615895Q768.8448387154122 289.1773327058082 791.4768979467542 289.1773327058082L791.4768979467542 289.1773327058082Q801.1308145605258 289.1773327058082 808.029721951971 290.0880795561641Q814.9058606721574 290.97605773526095 822.0324547761916 293.9359849989173Q829.1818175514848 296.8959122625738 833.5078650906748 301.9733259533074Q837.8566813011239 307.0507396440411 840.657227865968 315.976058777528Q843.4350057595533 324.9241465822739 843.4350057595533 337.2192290620774L843.4350057595533 337.2192290620774Q843.4350057595533 362.1281554193089 829.3411982502971 374.67369328296013Q815.2473907410408 387.2192311466115 791.4768979467542 387.2192311466115ZM785.7391927895126 355.25201669912246Q786.8776263524574 361.14910255517634 788.1071346004376 362.2875361181211Q789.336642848418 363.44873835232477 791.3858232617185 363.44873835232477Q793.4350036750192 363.44873835232477 794.6645119229995 362.2875361181211Q795.8940201709798 361.14910255517634 796.9641477201479 355.25201669912246Q798.034275269316 349.3549308430686 798.034275269316 340.4068430383227Q798.034275269316 331.48152390483574 797.6244391866559 326.6317969266911Q797.2146031039958 321.8048386198052 796.6226176512645 319.1864414250323Q796.0534008697921 316.56804423025926 795.0743480056597 315.08808059843113L795.0743480056597 315.08808059843113Q793.5943843738314 312.94782550009495 791.5452039605309 312.94782550009495Q789.4960235472303 312.94782550009495 788.1982092854732 314.1773337480753Q786.8776263524574 315.4068419960556 785.7391927895126 321.39500253714516Q784.5779905553088 327.3831630782346 784.5779905553088 338.35766262502216Q784.5779905553088 349.3549308430686 785.7391927895126 355.25201669912246ZM977.7018601732589 381.80028738699446L977.7018601732589 381.80028738699446Q975.5616050749227 385.73926751478325 955.4796370245772 385.73926751478325Q935.3976689742315 385.73926751478325 934.5779968089112 381.80028738699446L934.5779968089112 381.80028738699446L928.9996723504819 351.9733280378415L926.7228052245923 351.9733280378415L921.4632421637875 381.80028738699446Q920.9851000673507 385.73926751478325 892.7747163775794 385.73926751478325L892.7747163775794 385.73926751478325Q884.9195247932605 385.73926751478325 882.3694336122642 384.8285206644275Q879.8193424312681 383.9405424853305 878.8402895671354 381.80028738699446L878.8402895671354 381.80028738699446Q848.3530387514746 306.89135894522883 848.3530387514746 302.9523788174399Q848.3530387514746 299.013398689651 860.238285148618 294.84673184927317Q872.1235315457614 290.65729633763647 883.0980310925488 290.65729633763647L883.0980310925488 290.65729633763647Q897.214607273064 290.65729633763647 897.6927493695008 298.1937265243308L897.6927493695008 298.1937265243308L903.2710738279302 343.11631491813125L905.2291795561952 343.11631491813125L907.2100539557191 306.89135894522883Q907.3694346545312 302.7929981186277 915.5661563077335 299.67369015615895Q923.7628779609358 296.55438219369034 932.1189803129505 296.55438219369034Q940.475082664965 296.55438219369034 944.6645181766019 298.60356260699086Q948.8539536882386 300.6527430202915 949.0133343870509 303.61267028394786L949.0133343870509 303.61267028394786L950.8120594165036 343.11631491813125L952.6107844459564 343.11631491813125L958.0297282055733 300.99427308917495Q958.5078703020101 297.05529296138604 969.0953024373965 293.84491031388177Q979.659965901524 290.65729633763647 987.697306855914 290.65729633763647Q995.7346478103041 290.65729633763647 1000.311150733342 292.9569321347849L1000.311150733342 292.9569321347849Q1007.8703495912952 296.55438219369034 1007.8703495912952 301.4724151856117L1007.8703495912952 301.4724151856117Q1007.8703495912952 301.9733259533074 993.0251759304956 341.47697058749077Q978.1800022696957 380.98061522167416 977.7018601732589 381.80028738699446Z " fill="#7d141d" transform="matrix(0.8681672282999924,0,0,0.8681672282999923,0,11.012847849297728)"/></g></svg>